/* XPM */
static char *c37b737c6b484bf6dcd5877f19ab4fbb[] = {
/* columns rows colors chars-per-pixel */
"32 32 15 1 ",
"  c #2E0202",
". c #7D0000",
"X c #A40000",
"o c #AA0000",
"O c #B50000",
"+ c #8A323D",
"@ c #B95659",
"# c #BC6269",
"$ c #D3C2C7",
"% c #D1C6C7",
"& c gray85",
"* c #EFF9F9",
"= c #F5FFFF",
"- c #FEFEFE",
"; c gray100",
/* pixels */
";;;;;;;;;;;;;;;;;;;;;;;;;;;;;;;;",
";;;;;;;;;;;;;;;;;;;;;;;;;;;;;;;;",
";;;;;;;;;;;;;;;;;;;;;;;;;;;;;;;;",
";;;;;;;;;;;;;;;;;;;;;;;;;;;;;;;;",
";;;;;;;;;;;;;;;;;;;;;;;;;;;;;;;;",
";;;;;;;;;;;;;;;;;;;;;;;;;;;;;;;;",
";;;;;;;;;;;;;;;;;;;;;;;;;;;;;;;;",
";;;;;;;;;;;;;;;;;;;;;;;;;;;;;;;;",
";;;;;;;;;;;;;;;;;;;;;;;;;;;;;;;;",
";;;;;;;;;;;;;;;&&;;;;;;;;;;;;;;;",
";;;;;;;;;;;;;;;&&;;;;;;;;;;;;;;;",
";;;;;;;;;;;;;;;&&;;;;;;;;;;;;;;;",
";;;;;;;;;;;;+++OO$$$;;;;;;;;;;;;",
";;;;;;;;;;;;+++OO$$$;;;;;;;;;;;;",
";;;;;;;;;;;;+++OO$$$;;;;;;;;;;;;",
";;;;;;;;;;;;...  ###;;;;;;;;;;;;",
";;;;;;;;;;;;...  ###;;;;;;;;;;;;",
";;;;;;;;;***XXXoo@@@;;;;;;;;;;;;",
";;;;;;;;;***XXXoo@@@;;;;;;;;;;;;",
";;;;;;;;;***XXXoo@@@;;;;;;;;;;;;",
";;;;;;;;;;;;===%%;;;;;;;;;;;;;;;",
";;;;;;;;;;;;===%%;;;;;;;;;;;;;;;",
";;;;;;;;;;;;===%%;;;;;;;;;;;;;;;",
";;;;;;;;;;;;;;;;;;;;;;;;;;;;;;;;",
";;;;;;;;;;;;;;;;;;;;;;;;;;;;;;;;",
";;;;;;;;;;;;;;;;;;;;;;;;;;;;;;;;",
";;;;;;;;;;;;;;;;;;;;;;;;;;;;;;;;",
";;;;;;;;;;;;;;;;;;;;;;;;;;;;;;;;",
";;;;;;;;;;;;;;;;;;;;;;;;;;;;;;;;",
";;;;;;;;;;;;;;;;;;;;;;;;;;;;;;;;",
";;;;;;;;;;;;;;;;;;;;;;;;;;;;;;;;",
";;;;;;;;;;;;;;;;;;;;;;;;;;;;;;;;"
};
